# xmcd CD database file
# Copyright (C) 1993-1998 Ti Kan
# 
# Track frame offsets:
#     150
#     13667
#     32500
#     42817
#     51930
#     65237
#     78280
#     93620
#     106550
#     119917
#     134837
#     146267
#     161462
#     174300
#     200605
#     213170
#     227300
#     242250
#     252192
#     270555
#     286145
#     305282
# 
# Disc length: 4225 seconds
# 
# Revision: 1
# Processed by: cddbd v1.4b41PL1 Copyright (c) Steve Scherf et al.
# Submitted via: DiscPlay 4.0.4
# 
DISCID=28107f16
DTITLE=Fleetwood Mac - Fleetwood Mac - Kiln House
DYEAR=1900
DGENRE=
TTITLE0=My Heart Beat Like I Hammer
TTITLE1=Merry Go Round
TTITLE2=Long Grey Mare
TTITLE3=Hellhound On My Trail
TTITLE4=Shake Your Moneymaker
TTITLE5=Looking For Somebody
TTITLE6=No Place To Go
TTITLE7=My Baby's Good To Me
TTITLE8=I Loved Another Woman
TTITLE9=Cold Black Night
TTITLE10=The World Keep On Turning
TTITLE11=Got To Move
TTITLE12=This Is The Rock
TTITLE13=Station Man
TTITLE14=Blood On The Floor
TTITLE15=Hi Ho Silver
TTITLE16=Jewel Eyed Judy
TTITLE17=Buddy's Song
TTITLE18=Earl Gray
TTITLE19=One Together
TTITLE20=Tell Me The Things You Do
TTITLE21=Mission Bell
EXTD=
EXTT0=
EXTT1=\n
EXTT2=
EXTT3=
EXTT4=
EXTT5=
EXTT6=
EXTT7=
EXTT8=
EXTT9=
EXTT10=
EXTT11=
EXTT12=
EXTT13=
EXTT14=
EXTT15=
EXTT16=
EXTT17=
EXTT18=
EXTT19=
EXTT20=
EXTT21=
PLAYORDER=
